<?xml version="1.0" encoding="UTF-8" standalone="no"?>
<svg
   xmlns:dc="http://purl.org/dc/elements/1.1/"
   xmlns:cc="http://creativecommons.org/ns#"
   xmlns:rdf="http://www.w3.org/1999/02/22-rdf-syntax-ns#"
   xmlns:svg="http://www.w3.org/2000/svg"
   xmlns="http://www.w3.org/2000/svg"
   xmlns:xlink="http://www.w3.org/1999/xlink"
   xmlns:sodipodi="http://sodipodi.sourceforge.net/DTD/sodipodi-0.dtd"
   xmlns:inkscape="http://www.inkscape.org/namespaces/inkscape"
   viewBox="0 0 182.18245 144.86458"
   version="1.1"
   id="svg211"
   sodipodi:docname="trogdor.svg"
   width="182.18245"
   height="144.86458"
   inkscape:version="0.92.4 (5da689c313, 2019-01-14)"
   inkscape:export-filename="/home/chad/dev/chadly.net/content/projects/trogdor.png"
   inkscape:export-xdpi="263.99908"
   inkscape:export-ydpi="263.99908">
  <metadata
     id="metadata215">
    <rdf:RDF>
      <cc:Work
         rdf:about="">
        <dc:format>image/svg+xml</dc:format>
        <dc:type
           rdf:resource="http://purl.org/dc/dcmitype/StillImage" />
        <dc:title></dc:title>
      </cc:Work>
    </rdf:RDF>
  </metadata>
  <sodipodi:namedview
     pagecolor="#ffffff"
     bordercolor="#666666"
     borderopacity="1"
     objecttolerance="10"
     gridtolerance="10"
     guidetolerance="10"
     inkscape:pageopacity="0"
     inkscape:pageshadow="2"
     inkscape:window-width="3840"
     inkscape:window-height="1536"
     id="namedview213"
     showgrid="false"
     fit-margin-top="0"
     fit-margin-left="0"
     fit-margin-right="0"
     fit-margin-bottom="0"
     inkscape:zoom="9.2848267"
     inkscape:cx="91.08353"
     inkscape:cy="72.431052"
     inkscape:window-x="1440"
     inkscape:window-y="27"
     inkscape:window-maximized="1"
     inkscape:current-layer="svg211" />
  <defs
     id="defs42">
    <style
       id="style10">.cls-1,.cls-10,.cls-11,.cls-2,.cls-3,.cls-4,.cls-5,.cls-6,.cls-7,.cls-8,.cls-9{stroke:#000;stroke-linecap:round;stroke-linejoin:round;}.cls-1,.cls-10,.cls-2,.cls-3,.cls-4,.cls-5,.cls-6,.cls-7,.cls-8,.cls-9{stroke-width:0.5px;}.cls-1{fill:url(#linear-gradient);}.cls-2{fill:url(#linear-gradient-2);}.cls-3{fill:#f4d5bd;}.cls-11,.cls-4{fill:none;}.cls-5{fill:#9d639c;}.cls-6{fill:url(#linear-gradient-3);}.cls-7{fill:url(#linear-gradient-4);}.cls-8{fill:url(#linear-gradient-5);}.cls-9{fill:#fff;}.cls-10{fill:url(#linear-gradient-6);}.cls-11{stroke-width:0.75px;}</style>
    <linearGradient
       id="linear-gradient"
       x1="129.25"
       y1="73.449997"
       x2="173.02"
       y2="48.169998"
       gradientUnits="userSpaceOnUse">
      <stop
         offset="0"
         stop-color="#f4a02e"
         id="stop12" />
      <stop
         offset="0.23"
         stop-color="#f4a52b"
         id="stop14" />
      <stop
         offset="0.49"
         stop-color="#f4b222"
         id="stop16" />
      <stop
         offset="0.76"
         stop-color="#f3c813"
         id="stop18" />
      <stop
         offset="1"
         stop-color="#f3e300"
         id="stop20" />
    </linearGradient>
    <linearGradient
       id="linear-gradient-2"
       x1="121.44"
       y1="54.200001"
       x2="142.50999"
       y2="54.200001"
       gradientUnits="userSpaceOnUse">
      <stop
         offset="0"
         stop-color="#ea4326"
         id="stop23" />
      <stop
         offset="1"
         stop-color="#e77127"
         id="stop25" />
    </linearGradient>
    <linearGradient
       id="linear-gradient-3"
       x1="79.699997"
       y1="98.75"
       x2="87.459999"
       y2="106.51"
       gradientUnits="userSpaceOnUse">
      <stop
         offset="0"
         stop-color="#8fbb8d"
         id="stop28" />
      <stop
         offset="0.63"
         stop-color="#75bb69"
         id="stop30" />
      <stop
         offset="1"
         stop-color="#6abb59"
         id="stop32" />
    </linearGradient>
    <linearGradient
       id="linear-gradient-4"
       x1="71"
       y1="105.93"
       x2="76.989998"
       y2="116.3"
       xlink:href="#linear-gradient-3" />
    <linearGradient
       id="linear-gradient-5"
       x1="62.049999"
       y1="107.92"
       x2="68.129997"
       y2="118.46"
       xlink:href="#linear-gradient-3" />
    <linearGradient
       id="linear-gradient-6"
       x1="81.900002"
       y1="121.58"
       x2="81.900002"
       y2="29.969999"
       gradientUnits="userSpaceOnUse">
      <stop
         offset="0"
         stop-color="#64b851"
         id="stop37" />
      <stop
         offset="1"
         stop-color="#64b851"
         id="stop39" />
    </linearGradient>
    <linearGradient
       inkscape:collect="always"
       xlink:href="#linear-gradient-3"
       id="linearGradient217"
       gradientUnits="userSpaceOnUse"
       x1="79.699997"
       y1="98.75"
       x2="87.459999"
       y2="106.51" />
  </defs>
  <g
     id="Layer_2"
     data-name="Layer 2"
     transform="translate(0.00352791,0.00352851)">
    <g
       id="Layer_2-2"
       data-name="Layer 2">
      <path
         class="cls-1"
         d="m 123.69,43.94 c 0,0 16.16,-5.82 20,-5.82 h 3.82 l -7,5.39 a 83.43,83.43 0 0 0 9,-0.87 c 4.17,-0.7 14.41,-2 18.32,-0.87 l -12.42,8.77 19.8,1.39 -19.88,8.16 a 50.06,50.06 0 0 0 10.59,2.18 53.72,53.72 0 0 1 9.79,1.73 63.68,63.68 0 0 1 -13.2,3 c -8.77,1.21 -10.16,1.56 -10.16,1.56 l 20.5,9.12 a 76.37,76.37 0 0 1 -24.4,-2.17 L 161,87.8 A 110.66,110.66 0 0 1 140.33,77.2 c 0,0 3.91,8.69 4.25,10.6 0,0 -9.72,-9.47 -13,-15.29 -3.28,-5.82 -11.47,-14.85 -11.47,-14.85 l 3.65,-3 -1.56,-1.21 1.8,-2.21 -2.6,-1.13 3.42,-3.11 -2.08,-0.69 3.56,-1.48 z"
         id="path44"
         inkscape:connector-curvature="0"
         style="fill:url(#linear-gradient);stroke:#000000;stroke-width:0.5px;stroke-linecap:round;stroke-linejoin:round" />
    </g>
    <g
       id="Layer_3"
       data-name="Layer 3">
      <path
         class="cls-2"
         d="m 121.44,50.11 c 0,0 4.42,-2.31 7.49,-3.78 a 17.38,17.38 0 0 1 5.07,-1.68 19.92,19.92 0 0 1 -4,4 c 0,0 9.83,0.6 12.48,1.47 0,0 -1.5,2 -9.24,2 l 6.76,5.96 -8,-0.7 c 0,0 3.71,2.73 4.87,6.37 0,0 -10.93,-6.23 -15.4,-7.17 l 2.34,-2 -1.56,-1.21 1.75,-2.13 z"
         id="path47"
         inkscape:connector-curvature="0"
         style="fill:url(#linear-gradient-2);stroke:#000000;stroke-width:0.5px;stroke-linecap:round;stroke-linejoin:round" />
    </g>
    <g
       id="Layer_5"
       data-name="Layer 5">
      <path
         class="cls-3"
         d="m 40.77,67.34 c 0,0 5.67,0.36 9.12,-3.86 a 24.84,24.84 0 0 0 4.44,-7.4 l -6.1,-14.42 c 0,0 -3.77,-1.2 -6.45,3.4 0,0 -8.54,-1.64 -13.31,3.68 -4.77,5.32 -1,14.58 -1,14.58 0,0 -2.72,1.81 -2.47,4.49 a 4,4 0 0 0 4.18,3.9 H 28 c 0,0 -0.71,4.22 4.61,6.9 a 26.06,26.06 0 0 1 7.78,5.65 c 0,0 -1.3,5.74 2.98,7.74 4.28,2 9.32,-3.72 9.32,-3.72 l -2.14,-1.81 c 0,0 1.59,-2.91 0.33,-4.17 -1.26,-1.26 -6.64,1 -6.64,1 0,0 2.42,-6.36 -0.11,-11.51 -2.53,-5.15 -5.7,-6.08 -8.22,-7.29"
         id="path50"
         inkscape:connector-curvature="0"
         style="fill:#f4d5bd;stroke:#000000;stroke-width:0.5px;stroke-linecap:round;stroke-linejoin:round" />
      <line
         class="cls-4"
         x1="41.779999"
         y1="45.060001"
         x2="42.490002"
         y2="46.049999"
         id="line52"
         style="fill:none;stroke:#000000;stroke-width:0.5px;stroke-linecap:round;stroke-linejoin:round" />
      <line
         class="cls-4"
         x1="27.469999"
         y1="63.32"
         x2="29.389999"
         y2="63.650002"
         id="line54"
         style="fill:none;stroke:#000000;stroke-width:0.5px;stroke-linecap:round;stroke-linejoin:round" />
      <line
         class="cls-4"
         x1="51.220001"
         y1="84.730003"
         x2="46.82"
         y2="84.970001"
         id="line56"
         style="fill:none;stroke:#000000;stroke-width:0.5px;stroke-linecap:round;stroke-linejoin:round" />
      <path
         class="cls-4"
         d="m 51.06,86.94 a 5,5 0 0 1 -3.75,0"
         id="path58"
         inkscape:connector-curvature="0"
         style="fill:none;stroke:#000000;stroke-width:0.5px;stroke-linecap:round;stroke-linejoin:round" />
    </g>
    <g
       id="Layer_6"
       data-name="Layer 6">
      <path
         class="cls-4"
         d="m 36.15,60.93 c 0,0 4.93,1.44 7.81,-2.26 C 46.84,54.97 45.4,52 45.4,52"
         id="path61"
         inkscape:connector-curvature="0"
         style="fill:none;stroke:#000000;stroke-width:0.5px;stroke-linecap:round;stroke-linejoin:round" />
      <path
         class="cls-4"
         d="M 32.86,69.87 A 9.49,9.49 0 0 0 40,76.58"
         id="path63"
         inkscape:connector-curvature="0"
         style="fill:none;stroke:#000000;stroke-width:0.5px;stroke-linecap:round;stroke-linejoin:round" />
    </g>
    <g
       id="Layer_7"
       data-name="Layer 7">
      <path
         class="cls-5"
         d="M 54.75,34.63 A 42.86,42.86 0 0 1 42.49,24.25 c -4.8,-6.37 -6.34,-10.06 -6.34,-10.06 0,0 -3,3.39 -10.48,4.62 0,0 6.17,4.21 6.17,9.14 0,0 7.19,1.65 8.37,6.68 0,0 8.47,-0.61 11,2 z"
         id="path66"
         inkscape:connector-curvature="0"
         style="fill:#9d639c;stroke:#000000;stroke-width:0.5px;stroke-linecap:round;stroke-linejoin:round" />
      <path
         class="cls-4"
         d="M 38.62,23.33 A 29.64,29.64 0 0 0 33.69,26.1"
         id="path68"
         inkscape:connector-curvature="0"
         style="fill:none;stroke:#000000;stroke-width:0.5px;stroke-linecap:round;stroke-linejoin:round" />
      <path
         class="cls-4"
         d="m 41.78,32.17 a 6.25,6.25 0 0 1 1.87,-3.5"
         id="path70"
         inkscape:connector-curvature="0"
         style="fill:none;stroke:#000000;stroke-width:0.5px;stroke-linecap:round;stroke-linejoin:round" />
      <path
         class="cls-4"
         d="M 36.15,14.19 C 34.96,11.87 33.69,12.13 33.69,12.13"
         id="path72"
         inkscape:connector-curvature="0"
         style="fill:none;stroke:#000000;stroke-width:0.5px;stroke-linecap:round;stroke-linejoin:round" />
      <path
         class="cls-4"
         d="m 36.38,14.68 c 2.28,-3.25 0.11,-5 0.11,-5"
         id="path74"
         inkscape:connector-curvature="0"
         style="fill:none;stroke:#000000;stroke-width:0.5px;stroke-linecap:round;stroke-linejoin:round" />
      <path
         class="cls-4"
         d="m 40.1,13.15 c 0,0 -0.58,2.14 -3.83,1.29"
         id="path76"
         inkscape:connector-curvature="0"
         style="fill:none;stroke:#000000;stroke-width:0.5px;stroke-linecap:round;stroke-linejoin:round" />
      <path
         class="cls-5"
         d="m 60,31.22 c 0,0 7.26,-8.52 8.36,-27.22 0,0 8.14,6 12.14,6.21 a 16.44,16.44 0 0 0 -0.41,6.25 c 0,0 -4.84,0.92 -5.42,5.58 0,0 -9.76,1.24 -10,8.14 z"
         id="path78"
         inkscape:connector-curvature="0"
         style="fill:#9d639c;stroke:#000000;stroke-width:0.5px;stroke-linecap:round;stroke-linejoin:round" />
      <path
         class="cls-4"
         d="m 69.79,11.81 a 19.41,19.41 0 0 1 8.38,2.38"
         id="path80"
         inkscape:connector-curvature="0"
         style="fill:none;stroke:#000000;stroke-width:0.5px;stroke-linecap:round;stroke-linejoin:round" />
      <path
         class="cls-4"
         d="m 68.17,18.52 c 0,0 2.75,0.25 4.12,1.59"
         id="path82"
         inkscape:connector-curvature="0"
         style="fill:none;stroke:#000000;stroke-width:0.5px;stroke-linecap:round;stroke-linejoin:round" />
      <path
         class="cls-4"
         d="M 66.43,0.25 A 3.68,3.68 0 0 0 68.36,4"
         id="path84"
         inkscape:connector-curvature="0"
         style="fill:none;stroke:#000000;stroke-width:0.5px;stroke-linecap:round;stroke-linejoin:round" />
      <path
         class="cls-4"
         d="m 68.33,4.59 c -0.56,-3 1,-4.34 1,-4.34"
         id="path86"
         inkscape:connector-curvature="0"
         style="fill:none;stroke:#000000;stroke-width:0.5px;stroke-linecap:round;stroke-linejoin:round" />
      <path
         class="cls-4"
         d="m 70.91,2 a 3.12,3.12 0 0 0 -2.6,2.9"
         id="path88"
         inkscape:connector-curvature="0"
         style="fill:none;stroke:#000000;stroke-width:0.5px;stroke-linecap:round;stroke-linejoin:round" />
    </g>
    <g
       id="Layer_8"
       data-name="Layer 8">
      <polyline
         class="cls-4"
         points="92.83 20.46 97.85 32.17 102.63 16.78"
         id="polyline91"
         style="fill:none;stroke:#000000;stroke-width:0.5px;stroke-linecap:round;stroke-linejoin:round" />
      <circle
         cx="93.989998"
         cy="30.450001"
         r="1.16"
         id="circle93" />
      <ellipse
         cx="102.23"
         cy="30.42"
         rx="1.09"
         ry="1.16"
         id="ellipse95" />
    </g>
    <g
       id="Layer_9"
       data-name="Layer 9">
      <path
         class="cls-6"
         d="m 84.09,109.41 c 0,0 -4.73,-6.16 -4.66,-10.41 l 9.76,3 c 0,0 -1.56,5.69 -5.1,7.41 z"
         id="path98"
         inkscape:connector-curvature="0"
         style="fill:url(#linearGradient217);stroke:#000000;stroke-width:0.5px;stroke-linecap:round;stroke-linejoin:round" />
      <path
         class="cls-7"
         d="M 73.11,116.57 72,104.73 l 7.75,9.3 a 15.32,15.32 0 0 1 -6.64,2.54 z"
         id="path100"
         inkscape:connector-curvature="0"
         style="fill:url(#linear-gradient-4);stroke:#000000;stroke-width:0.5px;stroke-linecap:round;stroke-linejoin:round" />
      <polygon
         class="cls-8"
         points="70.06,117.34 63.86,116.22 64.28,106.63 "
         id="polygon102"
         style="fill:url(#linear-gradient-5);stroke:#000000;stroke-width:0.5px;stroke-linecap:round;stroke-linejoin:round" />
      <path
         class="cls-4"
         d="M 82.74,119.39 V 137 a 23.4,23.4 0 0 0 11.35,-1.55"
         id="path104"
         inkscape:connector-curvature="0"
         style="fill:none;stroke:#000000;stroke-width:0.5px;stroke-linecap:round;stroke-linejoin:round" />
      <path
         class="cls-4"
         d="m 73.72,120.44 c 0,0 -3.17,17.83 -3.17,23.4 0,0 10.36,-0.43 14.31,0.77"
         id="path106"
         inkscape:connector-curvature="0"
         style="fill:none;stroke:#000000;stroke-width:0.5px;stroke-linecap:round;stroke-linejoin:round" />
    </g>
    <g
       id="Layer_10"
       data-name="Layer 10">
      <polygon
         class="cls-9"
         points="102.05,44.65 98.77,44.41 100.23,46.68 "
         id="polygon109"
         style="fill:#ffffff;stroke:#000000;stroke-width:0.5px;stroke-linecap:round;stroke-linejoin:round" />
      <polygon
         class="cls-9"
         points="106.33,45.01 102.05,44.88 104.16,48.55 "
         id="polygon111"
         style="fill:#ffffff;stroke:#000000;stroke-width:0.5px;stroke-linecap:round;stroke-linejoin:round" />
      <polygon
         class="cls-9"
         points="110.46,45.13 105.81,44.65 108.2,48.08 "
         id="polygon113"
         style="fill:#ffffff;stroke:#000000;stroke-width:0.5px;stroke-linecap:round;stroke-linejoin:round" />
      <polygon
         class="cls-9"
         points="112.95,44.65 110.36,44.65 111.45,48.55 "
         id="polygon115"
         style="fill:#ffffff;stroke:#000000;stroke-width:0.5px;stroke-linecap:round;stroke-linejoin:round" />
      <polygon
         class="cls-9"
         points="115.61,44.88 113.78,44.88 114.77,48.45 "
         id="polygon117"
         style="fill:#ffffff;stroke:#000000;stroke-width:0.5px;stroke-linecap:round;stroke-linejoin:round" />
      <polygon
         class="cls-9"
         points="103.18,52.29 98.31,49.11 100.25,47.42 "
         id="polygon119"
         style="fill:#ffffff;stroke:#000000;stroke-width:0.5px;stroke-linecap:round;stroke-linejoin:round" />
      <polygon
         class="cls-9"
         points="108.94,53.99 105.34,53.13 107.17,49.24 "
         id="polygon121"
         style="fill:#ffffff;stroke:#000000;stroke-width:0.5px;stroke-linecap:round;stroke-linejoin:round" />
      <polygon
         class="cls-9"
         points="111.55,54.36 109.18,53.99 110.46,50.54 "
         id="polygon123"
         style="fill:#ffffff;stroke:#000000;stroke-width:0.5px;stroke-linecap:round;stroke-linejoin:round" />
    </g>
    <g
       id="Layer_4"
       data-name="Layer 4">
      <path
         class="cls-10"
         d="m 113,58.55 c 0,0 -10.85,2.57 -24.26,-8.26 -7,-5.66 -13.86,-5.11 -15.66,-2.6 -2.15,3 3.58,11.94 10.79,17.06 7.21,5.12 16.34,8.07 22.07,17.4 5.73,9.33 0.32,22.85 -6.94,29.73 -7.26,6.88 -23.74,17.87 -45.2,0 0,0 15.2,8.53 23.73,3.07 8.53,-5.46 15.69,-15.53 14.23,-28.33 -1.46,-12.8 -26.61,-19 -34,-25.67 -7.39,-6.67 -14.26,-16.2 -6.56,-24.31 7.7,-8.11 19.75,-7.3 27,-5.41 7.25,1.89 13.28,4.26 15.49,4.34 2.21,0.08 11,0.9 14.66,-0.74 0,0 2.63,-4.34 5.49,-3.68 2.86,0.66 2.22,6.3 1.81,13.92 0,0 -15.65,0.31 -20.32,-0.42 0,0 3.6,8.44 17.45,9.55 z"
         id="path126"
         inkscape:connector-curvature="0"
         style="fill:url(#linear-gradient-6);stroke:#000000;stroke-width:0.5px;stroke-linecap:round;stroke-linejoin:round" />
    </g>
    <g
       id="Layer_11"
       data-name="Layer 11">
      <path
         class="cls-4"
         d="m 66.67,59.68 c 0,0 1.42,2.09 2.54,2.09 1.12,0 1.79,-2.69 1.79,-2.69"
         id="path129"
         inkscape:connector-curvature="0"
         style="fill:none;stroke:#000000;stroke-width:0.5px;stroke-linecap:round;stroke-linejoin:round" />
      <path
         class="cls-4"
         d="m 72.57,60.8 c 0,0 -0.39,1.38 0.72,1.65 C 74.4,62.72 75,61.52 75,61.52"
         id="path131"
         inkscape:connector-curvature="0"
         style="fill:none;stroke:#000000;stroke-width:0.5px;stroke-linecap:round;stroke-linejoin:round" />
      <path
         class="cls-4"
         d="m 76.52,63.36 c 0,0 0.48,1.64 1.34,1.64 0.86,0 1.89,-1.36 1.89,-1.36"
         id="path133"
         inkscape:connector-curvature="0"
         style="fill:none;stroke:#000000;stroke-width:0.5px;stroke-linecap:round;stroke-linejoin:round" />
      <path
         class="cls-4"
         d="m 75.34,65.73 c 0,0 0.7,1.69 1.49,1.81 0.79,0.12 1.61,-1.2 1.61,-1.2"
         id="path135"
         inkscape:connector-curvature="0"
         style="fill:none;stroke:#000000;stroke-width:0.5px;stroke-linecap:round;stroke-linejoin:round" />
      <path
         class="cls-4"
         d="m 80.36,66.19 c 0,0 0.44,1.21 1.24,1.36 0.8,0.15 1.25,-1.43 1.25,-1.43"
         id="path137"
         inkscape:connector-curvature="0"
         style="fill:none;stroke:#000000;stroke-width:0.5px;stroke-linecap:round;stroke-linejoin:round" />
      <path
         class="cls-4"
         d="m 70.18,63.73 a 1.75,1.75 0 0 0 1.58,1.4 2.51,2.51 0 0 0 2,-0.76"
         id="path139"
         inkscape:connector-curvature="0"
         style="fill:none;stroke:#000000;stroke-width:0.5px;stroke-linecap:round;stroke-linejoin:round" />
      <path
         class="cls-4"
         d="m 115.61,24.47 a 5.38,5.38 0 0 0 3.32,-4.95 c 0,-3.7 -2.69,-6.7 -4.57,-5.84 -1.88,0.86 2,3.35 3.81,1.63 2.18,-2.08 3.73,-6.4 2,-7.47 -1.73,-1.07 -5.16,-2.23 -5.67,-0.71 -0.51,1.52 4.11,2.44 5,-0.25 0.89,-2.69 -1.73,-5.43 -3,-6 -1.27,-0.57 -4.06,-1 -4.26,1.22"
         id="path141"
         inkscape:connector-curvature="0"
         style="fill:none;stroke:#000000;stroke-width:0.5px;stroke-linecap:round;stroke-linejoin:round" />
      <path
         class="cls-4"
         d="m 115.12,104.73 a 55.15,55.15 0 0 1 7.79,-1.1"
         id="path143"
         inkscape:connector-curvature="0"
         style="fill:none;stroke:#000000;stroke-width:0.5px;stroke-linecap:round;stroke-linejoin:round" />
      <path
         class="cls-11"
         d="m 119.71,113.14 c 0,0 -1.11,-7.33 -0.7,-9.11"
         id="path145"
         inkscape:connector-curvature="0"
         style="fill:none;stroke:#000000;stroke-width:0.75px;stroke-linecap:round;stroke-linejoin:round" />
      <path
         class="cls-11"
         d="m 125.58,112.91 c -0.66,-1.19 -1.94,-8.18 -1.94,-8.18 0,0 2.37,-1.72 3.89,-0.26 1.52,1.46 -1.19,4.22 -1.33,5.07 -0.14,0.85 2.75,1.38 5,2.28"
         id="path147"
         inkscape:connector-curvature="0"
         style="fill:none;stroke:#000000;stroke-width:0.75px;stroke-linecap:round;stroke-linejoin:round" />
      <path
         class="cls-11"
         d="m 136.05,103.88 c 0,0 -3.41,0.38 -3.79,4.51 -0.38,4.13 2.66,4.61 4,4.23 a 4.22,4.22 0 0 0 3.27,-4.83 c -0.3,-3.36 -2.67,-3.6 -3.48,-3.91 z"
         id="path149"
         inkscape:connector-curvature="0"
         style="fill:none;stroke:#000000;stroke-width:0.75px;stroke-linecap:round;stroke-linejoin:round" />
      <path
         class="cls-11"
         d="m 144.3,103.43 c 0,0 -4.31,2 -4.76,5 -0.45,3 2.86,4.56 3.9,4.52 1.04,-0.04 3.37,-1.09 3.32,-2.89 -0.05,-1.8 -3.36,-1.71 -3.36,-1.71"
         id="path151"
         inkscape:connector-curvature="0"
         style="fill:none;stroke:#000000;stroke-width:0.75px;stroke-linecap:round;stroke-linejoin:round" />
      <path
         class="cls-11"
         d="m 150.3,103.88 c 0,0 0.68,8 1.27,8.65 0.59,0.65 4.43,0.66 4.85,-3.48 0.42,-4.14 -4.22,-5.56 -7.23,-5.17"
         id="path153"
         inkscape:connector-curvature="0"
         style="fill:none;stroke:#000000;stroke-width:0.75px;stroke-linecap:round;stroke-linejoin:round" />
      <path
         class="cls-11"
         d="m 161.09,103.82 c -1.37,-0.42 -3.62,1 -4.33,4.76 -0.71,3.76 2.53,4.27 4,4 a 4.42,4.42 0 0 0 3.54,-4.42 4.78,4.78 0 0 0 -3.21,-4.34 z"
         id="path155"
         inkscape:connector-curvature="0"
         style="fill:none;stroke:#000000;stroke-width:0.75px;stroke-linecap:round;stroke-linejoin:round" />
      <path
         class="cls-11"
         d="m 164.75,104.49 c 0,0 1.48,7.43 1.9,8.24"
         id="path157"
         inkscape:connector-curvature="0"
         style="fill:none;stroke:#000000;stroke-width:0.75px;stroke-linecap:round;stroke-linejoin:round" />
      <path
         class="cls-11"
         d="m 165,105.45 c 0,0 2.1,-2.6 3.47,-1.57 1.37,1.03 -0.19,4.17 -0.9,5.7 -0.71,1.53 3.35,1.29 5,2.24"
         id="path159"
         inkscape:connector-curvature="0"
         style="fill:none;stroke:#000000;stroke-width:0.75px;stroke-linecap:round;stroke-linejoin:round" />
      <path
         class="cls-11"
         d="m 138.07,117.07 a 18.85,18.85 0 0 1 1.47,8.09"
         id="path161"
         inkscape:connector-curvature="0"
         style="fill:none;stroke:#000000;stroke-width:0.75px;stroke-linecap:round;stroke-linejoin:round" />
      <path
         class="cls-11"
         d="m 137,122.54 c 0,0 2.84,-0.86 3.94,0"
         id="path163"
         inkscape:connector-curvature="0"
         style="fill:none;stroke:#000000;stroke-width:0.75px;stroke-linecap:round;stroke-linejoin:round" />
      <path
         class="cls-11"
         d="m 141,118.88 1.49,5.71 c 0,0 0.28,-2.8 1.7,-2.66 1.42,0.14 1.46,3.55 1.46,3.55"
         id="path165"
         inkscape:connector-curvature="0"
         style="fill:none;stroke:#000000;stroke-width:0.75px;stroke-linecap:round;stroke-linejoin:round" />
      <path
         class="cls-11"
         d="m 148.93,122.71 c 0,0 2.16,-1.45 0.89,-2.27 -1.27,-0.82 -3.8,1.24 -3.59,2.56 0.21,1.32 1.78,2.45 4.44,2.16"
         id="path167"
         inkscape:connector-curvature="0"
         style="fill:none;stroke:#000000;stroke-width:0.75px;stroke-linecap:round;stroke-linejoin:round" />
      <path
         class="cls-11"
         d="M 107,135.88 105.73,129 c 0,0 2.18,-1.54 2.92,0.32 0.74,1.86 -1.46,3.36 -1.46,3.36 0,0 4,-1.35 4.53,2.19 0.53,3.54 -5,3.48 -6,2.21"
         id="path169"
         inkscape:connector-curvature="0"
         style="fill:none;stroke:#000000;stroke-width:0.75px;stroke-linecap:round;stroke-linejoin:round" />
      <path
         class="cls-11"
         d="m 116.11,127.89 c 0,0 -1.5,8.11 2.65,9.43 4.15,1.32 3.1,-6.84 2,-9.26"
         id="path171"
         inkscape:connector-curvature="0"
         style="fill:none;stroke:#000000;stroke-width:0.75px;stroke-linecap:round;stroke-linejoin:round" />
      <line
         class="cls-11"
         x1="122.57"
         y1="129.53999"
         x2="124.57"
         y2="137.82001"
         id="line173"
         style="fill:none;stroke:#000000;stroke-width:0.75px;stroke-linecap:round;stroke-linejoin:round" />
      <path
         class="cls-11"
         d="m 122.75,130.31 c 0,0 1.79,-2.78 3.53,-1.51 1.74,1.27 -0.94,4.66 -0.91,5.43 0.03,0.77 3.77,1.09 4.92,2.44"
         id="path175"
         inkscape:connector-curvature="0"
         style="fill:none;stroke:#000000;stroke-width:0.75px;stroke-linecap:round;stroke-linejoin:round" />
      <path
         class="cls-11"
         d="m 132.06,137.82 c 0.59,-3.9 -1.15,-9 -1.15,-9 0,0 5.52,7.81 7.76,8.61 0.34,0.12 -0.06,-5.64 -1.95,-9.12"
         id="path177"
         inkscape:connector-curvature="0"
         style="fill:none;stroke:#000000;stroke-width:0.75px;stroke-linecap:round;stroke-linejoin:round" />
      <path
         class="cls-11"
         d="m 139.58,128.47 c 0,0 0.71,0.36 0.74,0.8"
         id="path179"
         inkscape:connector-curvature="0"
         style="fill:none;stroke:#000000;stroke-width:0.75px;stroke-linecap:round;stroke-linejoin:round" />
      <path
         class="cls-11"
         d="m 141.18,132 c 0,0 1.24,4 1.53,5.46"
         id="path181"
         inkscape:connector-curvature="0"
         style="fill:none;stroke:#000000;stroke-width:0.75px;stroke-linecap:round;stroke-linejoin:round" />
      <path
         class="cls-11"
         d="m 144.63,137.47 a 19.37,19.37 0 0 0 -1.33,-9 c 0,0 5.85,7.94 7.64,9 0.35,0.21 0.5,-5.16 -1.71,-9.76"
         id="path183"
         inkscape:connector-curvature="0"
         style="fill:none;stroke:#000000;stroke-width:0.75px;stroke-linecap:round;stroke-linejoin:round" />
      <path
         class="cls-11"
         d="m 151.14,138 c 0,0 4.46,-8.29 4.55,-9.13 0.09,-0.84 1.74,8.81 1.74,8.81"
         id="path185"
         inkscape:connector-curvature="0"
         style="fill:none;stroke:#000000;stroke-width:0.75px;stroke-linecap:round;stroke-linejoin:round" />
      <line
         class="cls-11"
         x1="153.56"
         y1="133.41"
         x2="156.67"
         y2="133.41"
         id="line187"
         style="fill:none;stroke:#000000;stroke-width:0.75px;stroke-linecap:round;stroke-linejoin:round" />
      <path
         class="cls-11"
         d="m 157.66,129.42 a 71.87,71.87 0 0 1 7.79,-1.07"
         id="path189"
         inkscape:connector-curvature="0"
         style="fill:none;stroke:#000000;stroke-width:0.75px;stroke-linecap:round;stroke-linejoin:round" />
      <path
         class="cls-11"
         d="m 161.67,128.75 c 0,0 -0.38,5.89 0.56,8.54"
         id="path191"
         inkscape:connector-curvature="0"
         style="fill:none;stroke:#000000;stroke-width:0.75px;stroke-linecap:round;stroke-linejoin:round" />
      <path
         class="cls-11"
         d="m 170.67,128.35 c -1.57,-0.28 -4.13,1.42 -4.51,4.37 -0.25,1.88 0.79,4.57 3.24,4.9 2.45,0.33 4.2,-1.68 4.16,-4.84 -0.03,-2.13 -1.12,-4.11 -2.89,-4.43 z"
         id="path193"
         inkscape:connector-curvature="0"
         style="fill:none;stroke:#000000;stroke-width:0.75px;stroke-linecap:round;stroke-linejoin:round" />
      <path
         class="cls-11"
         d="m 174.15,129.42 c 0,0 1.18,5.24 1.74,8.05 l -1.59,-7.35 c 0,0 2.47,-3.27 3.89,-0.85 1.42,2.42 -1.33,3.72 -1.39,4.81 -0.06,1.09 3.89,1.56 5,2.59"
         id="path195"
         inkscape:connector-curvature="0"
         style="fill:none;stroke:#000000;stroke-width:0.75px;stroke-linecap:round;stroke-linejoin:round" />
      <line
         class="cls-4"
         x1="20.49"
         y1="41.52"
         x2="11.12"
         y2="33.830002"
         id="line197"
         style="fill:none;stroke:#000000;stroke-width:0.5px;stroke-linecap:round;stroke-linejoin:round" />
      <line
         class="cls-4"
         x1="15.8"
         y1="61.209999"
         x2="0.25"
         y2="59.080002"
         id="line199"
         style="fill:none;stroke:#000000;stroke-width:0.5px;stroke-linecap:round;stroke-linejoin:round" />
      <line
         class="cls-4"
         x1="28.43"
         y1="88.849998"
         x2="15.8"
         y2="95.040001"
         id="line201"
         style="fill:none;stroke:#000000;stroke-width:0.5px;stroke-linecap:round;stroke-linejoin:round" />
      <line
         class="cls-4"
         x1="134.85001"
         y1="24.469999"
         x2="146.22"
         y2="15.43"
         id="line203"
         style="fill:none;stroke:#000000;stroke-width:0.5px;stroke-linecap:round;stroke-linejoin:round" />
      <line
         class="cls-4"
         x1="52.77"
         y1="14.68"
         x2="43.650002"
         y2="5.5599999"
         id="line205"
         style="fill:none;stroke:#000000;stroke-width:0.5px;stroke-linecap:round;stroke-linejoin:round" />
      <ellipse
         class="cls-4"
         cx="112.95"
         cy="34.360001"
         rx="1.15"
         ry="1.22"
         id="ellipse207"
         style="fill:none;stroke:#000000;stroke-width:0.5px;stroke-linecap:round;stroke-linejoin:round" />
    </g>
  </g>
</svg>
